<mxfile host="65bd71144e">
    <diagram id="g3LKzfSQJl6oCglym-xO" name="Page-1">
        <mxGraphModel dx="730" dy="1152" grid="1" gridSize="10" guides="1" tooltips="1" connect="1" arrows="1" fold="1" page="1" pageScale="1" pageWidth="850" pageHeight="1100" math="0" shadow="0">
            <root>
                <mxCell id="0"/>
                <mxCell id="1" parent="0"/>
                <mxCell id="4" value="" style="ellipse;" vertex="1" parent="1">
                    <mxGeometry x="20" y="20" width="30" height="30" as="geometry"/>
                </mxCell>
            </root>
        </mxGraphModel>
    </diagram>
</mxfile>